<svg width="781" height="277" viewBox="0 0 781 277" fill="none" xmlns="http://www.w3.org/2000/svg">
<path d="M39.1875 138.75C46.6875 138.75 52.9375 137.438 57.9375 134.812C62.9375 132.063 65.4375 128.063 65.4375 122.813C65.4375 118.188 63.4375 114.5 59.4375 111.75C55.4375 109 49.6875 106.25 42.1875 103.5L37.875 101.813C28.5 98.0625 21.5 94.1875 16.875 90.1875C12.25 86.1875 9.9375 80.625 9.9375 73.5C9.9375 64.125 13 57.0625 19.125 52.3125C22.75 49.5625 26.5625 47.625 30.5625 46.5C34.5625 45.25 39.25 44.625 44.625 44.625C52.25 44.625 61.6875 47 72.9375 51.75L69.375 62.8125C59.375 58.8125 51.625 56.8125 46.125 56.8125C38.875 56.8125 33.125 58.1875 28.875 60.9375C24.75 63.5625 22.6875 67.3125 22.6875 72.1875C22.6875 75.5625 23.75 78.4375 25.875 80.8125C28.125 83.1875 30.5625 85.0625 33.1875 86.4375C35.9375 87.6875 39.75 89.3125 44.625 91.3125C46.625 92.1875 48.4375 92.875 50.0625 93.375C56.5625 96 61.625 98.375 65.25 100.5C69 102.5 72.1875 105.25 74.8125 108.75C77.4375 112.25 78.75 116.688 78.75 122.062C78.75 131.688 74.875 139 67.125 144C59.375 149 49.9375 151.5 38.8125 151.5C33.0625 151.5 28.3125 151 24.5625 150C20.8125 149 15.125 147.188 7.5 144.563L11.8125 132.562C22.8125 136.688 31.9375 138.75 39.1875 138.75ZM128.197 151.687C117.322 151.687 108.822 148.313 102.697 141.563C96.6973 134.813 93.6973 125.75 93.6973 114.375C93.6973 102.875 96.7598 93.8125 102.885 87.1875C109.135 80.4375 117.76 77.0625 128.76 77.0625C139.76 77.0625 148.26 80.375 154.26 87C160.26 93.625 163.26 102.688 163.26 114.188C163.26 125.438 160.135 134.5 153.885 141.375C147.635 148.25 139.072 151.687 128.197 151.687ZM128.76 86.625C121.635 86.625 116.072 89.25 112.072 94.5C108.197 99.75 106.26 106.375 106.26 114.375C106.26 122.375 108.197 128.938 112.072 134.063C116.072 139.188 121.635 141.75 128.76 141.75C135.76 141.75 141.197 139.188 145.072 134.063C148.947 128.813 150.885 122.25 150.885 114.375C150.885 106.375 148.885 99.75 144.885 94.5C141.01 89.25 135.635 86.625 128.76 86.625ZM202.236 140.438C204.111 140.438 206.236 140.063 208.611 139.313L210.861 148.125C210.486 148.25 208.986 148.875 206.361 150C203.736 151.125 200.361 151.687 196.236 151.687C191.611 151.687 187.924 150.125 185.174 147C182.424 143.75 180.986 139.563 180.861 134.438V50.0625H192.674V130.125C192.674 133.5 193.236 136.063 194.361 137.813C195.486 139.563 198.111 140.438 202.236 140.438ZM252.17 151.5C241.42 151.5 233.17 148.188 227.42 141.563C221.67 134.813 218.795 125.875 218.795 114.75C218.795 102.5 222.232 92.9375 229.107 86.0625C235.732 79.6875 243.982 76.5 253.857 76.5C260.482 76.5 266.107 77.625 270.732 79.875V50.25H283.482V150H274.482L272.42 144.938C265.67 149.313 258.92 151.5 252.17 151.5ZM254.607 141.188C257.982 141.188 260.795 140.875 263.045 140.25C265.42 139.5 267.982 138.375 270.732 136.875V89.25C266.107 87.375 260.795 86.4375 254.795 86.4375C247.045 86.4375 241.17 88.9375 237.17 93.9375C233.295 98.9375 231.357 105.625 231.357 114C231.357 122.25 233.295 128.875 237.17 133.875C241.17 138.75 246.982 141.188 254.607 141.188ZM329.807 57.375V150H342.182V57.375H376.869V46.875H295.682V57.375H329.807ZM420.141 77.0625C422.891 77.0625 425.078 77.25 426.703 77.625C428.453 77.875 430.141 78.375 431.766 79.125L427.453 90C424.203 88.5 420.641 87.75 416.766 87.75C411.516 87.75 406.328 89.5 401.203 93V150H389.016V78H397.828L400.453 84.1875C406.703 79.4375 413.266 77.0625 420.141 77.0625ZM467.197 87.5625C464.572 87.5625 461.385 87.875 457.635 88.5C454.01 89 450.76 89.6875 447.885 90.5625L445.447 81.5625C453.822 78.6875 461.635 77.25 468.885 77.25C477.01 77.25 483.197 78.5 487.447 81C491.197 83.75 493.76 86.6875 495.135 89.8125C496.635 92.9375 497.385 97.5 497.385 103.5V150H488.197L485.572 143.25C478.447 149 471.135 151.875 463.635 151.875C457.135 151.875 451.635 150 447.135 146.25C442.76 142.5 440.572 137.75 440.572 132C440.572 126.375 442.26 121.75 445.635 118.125C449.135 114.375 453.385 111.875 458.385 110.625C464.76 109 473.697 108.062 485.197 107.812V107.25C485.197 102.125 484.697 98.375 483.697 96C481.697 90.375 476.197 87.5625 467.197 87.5625ZM465.322 142.125C469.447 142.125 473.072 141.438 476.197 140.063C479.322 138.563 482.322 136.5 485.197 133.875V116.625C476.572 116.75 470.197 117.25 466.072 118.125C461.447 119.125 458.01 120.625 455.76 122.625C453.51 124.5 452.385 127.188 452.385 130.688C452.385 134.313 453.635 137.125 456.135 139.125C458.76 141.125 461.822 142.125 465.322 142.125ZM549.129 151.687C538.004 151.687 529.379 148.5 523.254 142.125C517.254 135.75 514.254 126.813 514.254 115.313C514.254 104.563 517.379 95.3125 523.629 87.5625C529.879 80.5625 539.191 77.0625 551.566 77.0625C557.691 77.0625 563.816 78.375 569.941 81L566.941 90C562.566 88.125 557.629 87.1875 552.129 87.1875C543.629 87.1875 537.254 89.4375 533.004 93.9375C528.754 98.3125 526.629 104.688 526.629 113.063C526.629 123.813 529.191 131.25 534.316 135.375C539.441 139.5 545.754 141.563 553.254 141.563C558.004 141.563 562.566 140.75 566.941 139.125L569.754 147.563C562.504 150.312 555.629 151.687 549.129 151.687ZM598.682 150H586.494V50.25H598.682V150ZM614.432 110.25L647.432 150H632.432L599.994 110.25L631.494 78H645.744L614.432 110.25ZM689.619 77.0625C699.119 77.0625 706.432 79.9375 711.557 85.6875C716.682 91.3125 719.244 99.3125 719.244 109.688V116.25L718.494 117.75H669.182C669.182 123.875 671.494 129.562 676.119 134.812C680.494 139.188 687.307 141.375 696.557 141.375C702.682 141.375 708.494 140.438 713.994 138.562L716.244 147.563C708.619 150.188 700.932 151.5 693.182 151.5C681.557 151.5 672.682 148.375 666.557 142.125C660.432 135.875 657.369 126.938 657.369 115.313C657.369 104.313 660.057 95.25 665.432 88.125C671.182 80.75 679.244 77.0625 689.619 77.0625ZM706.869 108C706.869 101.75 705.494 96.625 702.744 92.625C700.119 88.625 696.182 86.625 690.932 86.625C684.307 86.625 679.244 88.625 675.744 92.625C672.244 96.625 670.119 101.75 669.369 108H706.869ZM767.602 77.0625C770.352 77.0625 772.539 77.25 774.164 77.625C775.914 77.875 777.602 78.375 779.227 79.125L774.914 90C771.664 88.5 768.102 87.75 764.227 87.75C758.977 87.75 753.789 89.5 748.664 93V150H736.477V78H745.289L747.914 84.1875C754.164 79.4375 760.727 77.0625 767.602 77.0625Z" fill="#7C91D3"/>
<circle cx="256" cy="257" r="20" fill="#7C91D3"/>
<circle cx="321" cy="257" r="20" fill="#7C91D3"/>
<ellipse cx="385.5" cy="257" rx="20.5" ry="20" fill="#7C91D3"/>
<circle cx="450" cy="257" r="20" fill="#7C91D3"/>
<circle cx="515" cy="257" r="20" fill="#7C91D3"/>
</svg>
